<?xml version="1.0" encoding="UTF-8"?>
<svg version="1.1" xmlns="http://www.w3.org/2000/svg" width="2000" height="2000">
<path d="M0 0 C660 0 1320 0 2000 0 C2000 660 2000 1320 2000 2000 C1340 2000 680 2000 0 2000 C0 1340 0 680 0 0 Z " fill="#FEFEFE" transform="translate(0,0)"/>
<path d="M0 0 C0.84772476 -0.01548889 1.69544952 -0.03097778 2.56886292 -0.04693604 C33.95962717 -0.5129043 58.96189377 4.94054472 87.98046875 17.30859375 C89.17414062 17.81261719 90.3678125 18.31664062 91.59765625 18.8359375 C95.20748807 20.36138256 98.81281765 21.89712497 102.41796875 23.43359375 C103.60253662 23.93246094 104.78710449 24.43132813 106.00756836 24.9453125 C111.08731744 27.10518907 116.05394571 29.2737913 120.859375 31.99609375 C138.351588 41.5096305 158.82542774 39.97704764 178.21484375 40.26544189 C184.86898829 40.36926605 191.52216168 40.52980046 198.17514038 40.69061279 C199.70866047 40.7275191 201.24221031 40.76320972 202.77578735 40.79766846 C217.29167501 41.13259499 231.58206437 42.37490889 245.98046875 44.30859375 C246.86234863 44.41929199 247.74422852 44.52999023 248.65283203 44.64404297 C274.88431772 47.98540395 298.81803693 60.86388162 315.98046875 81.30859375 C324.9220757 94.82324709 326.82799263 112.00461814 329.25952148 127.70092773 C331.75166862 145.4189813 331.75166862 145.4189813 341.98046875 159.30859375 C360.03342799 170.10015231 380.18963796 176.33334248 400.41796875 181.62109375 C461.36861834 197.62029623 461.36861834 197.62029623 472.40625 215.4921875 C483.83465163 235.93853384 486.87478479 254.3906096 487.75622559 277.59283447 C489.42003505 319.97904572 494.55536907 361.99280644 500.4765625 403.96875 C500.71178066 405.65175862 500.94689056 407.33478237 501.18188477 409.01782227 C501.61094041 412.08935252 502.05406051 415.1583138 502.50756836 418.22631836 C503.48040512 424.97204972 504.22613367 431.71099973 504.42578125 438.52734375 C504.46461426 439.71263672 504.50344727 440.89792969 504.54345703 442.11914062 C503.81954596 446.22025695 502.02801394 447.59073261 498.98046875 450.30859375 C499.00584396 453.62640185 500.9216691 455.92187984 502.73046875 458.62109375 C519.62774507 486.25644734 514.11862017 516.740683 507.42364502 546.33703613 C506.54174294 550.26035261 505.69980521 554.19235075 504.8515625 558.12304688 C504.25299742 560.89188095 503.64667095 563.65891994 503.0390625 566.42578125 C502.08048081 570.81593149 501.16967739 575.21391653 500.29296875 579.62109375 C500.05964844 580.78898437 499.82632812 581.956875 499.5859375 583.16015625 C499.21116732 585.10896121 498.85567197 587.06171516 498.53125 589.01953125 C495.20152018 608.38695057 482.77181777 625.32381621 467.16796875 636.87109375 C464.13585048 638.95540081 461.06494857 640.88602358 457.85546875 642.68359375 C454.90218006 643.99967081 454.90218006 643.99967081 453.98046875 646.30859375 C454.85445312 646.31246094 454.85445312 646.31246094 455.74609375 646.31640625 C464.17510811 646.71400127 471.96443085 649.31528814 478.05078125 655.3671875 C479.97074428 657.91996346 481.48022355 660.48740094 482.98046875 663.30859375 C483.29918945 663.88399902 483.61791016 664.4594043 483.94628906 665.05224609 C490.11880594 676.42220109 492.17553275 687.07059928 489.15625 699.77734375 C483.17056921 717.08331206 470.08121864 731.04227251 457.98046875 744.30859375 C456.58410899 745.87062331 455.18828562 747.43313253 453.79296875 748.99609375 C450.51702766 752.64495282 447.18008526 756.22933103 443.81616211 759.79663086 C437.57833305 766.42105765 431.60023981 773.14414783 425.98046875 780.30859375 C425.10428474 781.40374031 424.22797695 782.49878784 423.3515625 783.59375 C422.45609549 784.72712588 421.56154775 785.86122873 420.66796875 786.99609375 C419.46720703 788.51783203 419.46720703 788.51783203 418.2421875 790.0703125 C413.74007237 796.51634608 411.02938169 803.56562528 408.23046875 810.87109375 C400.41599122 830.66654866 393.00093499 842.06581701 373.21777344 851.25683594 C370.93723604 852.32891746 368.6810092 853.44215256 366.42578125 854.56640625 C333.59710344 870.78832251 333.59710344 870.78832251 320.98046875 869.30859375 C320.32046875 868.64859375 319.66046875 867.98859375 318.98046875 867.30859375 C319.33580615 862.41509013 323.04333069 860.08643493 326.515625 857.0625 C333.19855082 851.61303402 340.44423084 846.8631254 347.54638672 841.98486328 C353.08255422 838.17229296 358.55874901 834.28204589 363.98046875 830.30859375 C364.69460938 829.79425781 365.40875 829.27992188 366.14453125 828.75 C375.15562978 821.74357317 379.68777788 810.13620549 384.35546875 800.05859375 C396.91400219 773.55072044 413.50695656 753.65351209 434.21313477 733.08813477 C438.33709124 728.98177446 442.31532529 724.83563168 445.98046875 720.30859375 C446.79257813 719.31214844 447.6046875 718.31570313 448.44140625 717.2890625 C451.05564121 714.03113838 453.53142416 710.69257767 455.98046875 707.30859375 C456.55796875 706.54289062 457.13546875 705.7771875 457.73046875 704.98828125 C463.48177986 695.87114603 462.17380481 682.47055546 460.3515625 672.234375 C459.03080326 667.04017834 457.68753486 663.1809658 453.23046875 659.99609375 C449.15779656 658.06851225 445.39256214 657.09882621 440.98046875 658.30859375 C420.42925346 668.13323429 401.50730352 689.47589385 387.48046875 706.87109375 C378.14703184 718.32356053 369.087745 725.42924227 355.41796875 730.93359375 C354.7412915 731.21090332 354.06461426 731.48821289 353.36743164 731.77392578 C350.92877502 732.7122343 348.47012405 733.51398287 345.98046875 734.30859375 C344.92324615 734.64794952 343.86602356 734.9873053 342.77676392 735.33694458 C329.21581883 739.10114343 315.80252737 738.833417 301.81370616 738.7141695 C298.32778698 738.6888194 294.84184737 738.68678783 291.35585022 738.68206787 C284.78308234 738.66973518 278.21058702 738.63704826 271.63793808 738.59666991 C264.14316657 738.55164599 256.64838064 738.52988897 249.15350711 738.50988817 C233.76233759 738.46830437 218.37143859 738.39814586 202.98046875 738.30859375 C203.29592049 739.9184149 203.61315623 741.52788655 203.93115234 743.13720703 C204.10762299 744.03351837 204.28409363 744.92982971 204.46591187 745.853302 C206.42090465 755.18186759 211.46058868 762.68230151 216.98046875 770.30859375 C217.46386719 770.99179688 217.94726562 771.675 218.4453125 772.37890625 C225.00208927 780.85520318 235.5927707 786.31187376 245.98046875 788.30859375 C259.10996421 789.65912895 271.90012473 787.45996661 284.640625 784.44140625 C301.3849186 780.61518029 316.99002689 780.960978 332.98046875 787.30859375 C334.12773438 787.73914062 335.275 788.1696875 336.45703125 788.61328125 C341.60513813 790.62993626 345.84636804 792.54693454 349.98046875 796.30859375 C349.98046875 796.96859375 349.98046875 797.62859375 349.98046875 798.30859375 C339.8222883 800.99584384 329.68592727 803.20976578 319.32373047 804.94668579 C315.62739176 805.56722487 311.9347997 806.20927498 308.2421875 806.8515625 C307.5242099 806.97621384 306.8062323 807.10086517 306.0664978 807.22929382 C300.18290774 808.25769795 294.32419088 809.38482083 288.48046875 810.62109375 C287.7227417 810.78029297 286.96501465 810.93949219 286.18432617 811.10351562 C282.47968206 811.89726386 282.47968206 811.89726386 278.98046875 813.30859375 C280.00663907 816.69495579 281.16098907 818.50200838 283.60546875 821.12109375 C292.84558811 831.45095692 298.70566285 846.58050087 297.98046875 860.30859375 C297.52972568 864.07033428 296.87422429 867.77476909 296.16796875 871.49609375 C295.91950195 872.91438477 295.91950195 872.91438477 295.66601562 874.36132812 C294.67479681 879.72887152 293.3546398 884.39018209 290.98046875 889.30859375 C289.203125 889.21875 289.203125 889.21875 286.98046875 888.30859375 C285.5854709 886.11822965 284.4991324 884.08814031 283.41796875 881.74609375 C283.07991211 881.04427979 282.74185547 880.34246582 282.39355469 879.61938477 C279.88614361 874.3701253 277.50242977 869.06363902 275.1003418 863.765625 C274.42225464 862.27095703 274.42225464 862.27095703 273.73046875 860.74609375 C273.27260986 859.73675781 272.81475098 858.72742187 272.34301758 857.6875 C268.95096117 850.2734756 265.36302712 842.98155379 261.60546875 835.74609375 C261.11788086 834.80113037 260.63029297 833.85616699 260.12792969 832.88256836 C254.17679569 821.56212084 248.68160492 816.06439137 237.26342773 810.51806641 C216.53322559 800.40777558 201.89661883 785.55006537 194.0078125 763.50390625 C191.52944224 755.79551508 189.70177601 748.38225573 189.38671875 740.26953125 C189.13627037 737.90530189 189.13627037 737.90530189 185.98046875 736.30859375 C183.47496712 735.81942438 181.00493716 735.41628713 178.48046875 735.05859375 C168.35326495 733.4922529 158.41007959 731.25407129 148.421875 728.98046875 C143.18974523 727.79169964 137.94857709 726.66427087 132.6953125 725.57421875 C102.69432294 719.31811809 74.44397974 710.35531556 56.33740234 683.62084961 C43.76962784 664.36342674 38.39195117 642.58024082 33.1394043 620.41137695 C31.32638687 613.03394897 28.79040544 606.8984191 24.98046875 600.30859375 C24.65046875 599.31859375 24.32046875 598.32859375 23.98046875 597.30859375 C22.18114296 596.24142671 22.18114296 596.24142671 19.98046875 595.30859375 C19.34238281 594.83421875 18.70429687 594.35984375 18.046875 593.87109375 C13.45423277 591.53089389 8.73536161 591.04701728 3.66796875 590.30859375 C2.56509521 590.13908203 1.46222168 589.96957031 0.32592773 589.79492188 C-7.25239289 588.65183829 -14.84659899 587.70719715 -22.45703125 586.80859375 C-48.76007765 583.62861277 -70.69413793 577.43258883 -87.84765625 556.02734375 C-92.01953125 550.64679468 -92.01953125 550.64679468 -92.01953125 548.30859375 C-98.17561213 550.96415805 -103.09781341 554.49865081 -108.27416992 558.69091797 C-116.85445565 565.55672067 -124.38416974 566.47731479 -135.01953125 565.30859375 C-153.77503203 562.19450105 -170.65836362 554.14681349 -187.68359375 546.06640625 C-205.21954088 537.79212489 -218.77604248 532.16114761 -237.76953125 538.30859375 C-286.34861458 553.50710754 -347.98696901 524.07385761 -390.328125 502.0859375 C-393.43481405 500.45832012 -396.53078787 498.81134036 -399.625 497.16015625 C-403.70992596 494.98641156 -407.82194501 492.8691443 -411.9453125 490.76953125 C-413.76573863 489.83898455 -415.58591619 488.90795298 -417.40606689 487.97686768 C-419.16188102 487.0816149 -420.92147256 486.1937828 -422.68115234 485.30615234 C-428.31463762 482.41937447 -433.51870632 479.4967771 -438.42700195 475.48144531 C-442.12837688 472.75549021 -446.37239193 473.06983937 -450.765625 472.9140625 C-452.34183113 472.84518057 -453.91800218 472.77549187 -455.49414062 472.70507812 C-457.96198305 472.59862791 -460.42958967 472.49706253 -462.89819336 472.40991211 C-485.05453877 471.60622129 -499.3670799 463.73807571 -515.01953125 448.30859375 C-516.09847656 447.24898437 -516.09847656 447.24898437 -517.19921875 446.16796875 C-530.11806668 432.57464282 -538.49043015 414.31441922 -544.45703125 396.74609375 C-544.70420898 396.0205127 -544.95138672 395.29493164 -545.20605469 394.54736328 C-548.28096727 385.03531203 -548.15624979 375.66099445 -548.1171875 365.74609375 C-548.1153192 364.3450526 -548.11389725 362.94401079 -548.11289978 361.54296875 C-548.10910701 357.88025057 -548.09930491 354.21757292 -548.0881958 350.55487061 C-548.07791151 346.80741931 -548.07338721 343.05996138 -548.06835938 339.3125 C-548.05767929 331.97784624 -548.04064244 324.6432257 -548.01953125 317.30859375 C-548.63586426 317.10580811 -549.25219727 316.90302246 -549.88720703 316.6940918 C-550.69657715 316.42636963 -551.50594727 316.15864746 -552.33984375 315.8828125 C-553.54278076 315.48582153 -553.54278076 315.48582153 -554.77001953 315.08081055 C-559.41975539 313.4846401 -561.42089486 312.40265335 -563.83203125 307.99609375 C-569.21074982 290.77801188 -561.88021129 268.9880937 -558.14453125 252.05859375 C-553.53447657 231.09803484 -549.41430083 209.80128874 -547.89453125 188.37109375 C-546.66627163 171.46542355 -541.66142929 159.70825969 -528.70703125 148.49609375 C-498.28509515 123.06830777 -465.79953724 103.55102338 -425.83248901 99.60153198 C-411.4295376 98.16657683 -397.17600609 96.39746452 -383.01953125 93.30859375 C-381.41464844 92.95861328 -381.41464844 92.95861328 -379.77734375 92.6015625 C-360.6697869 87.86621146 -345.99850971 77.6289379 -330.55078125 65.90209961 C-308.83672622 49.52800519 -285.66968549 37.61272273 -259.07910156 31.77636719 C-252.21498389 30.21737602 -245.39817975 28.35455386 -238.67578125 26.2734375 C-205.4084403 16.05228018 -160.63691459 13.65882716 -126.1940918 19.81347656 C-98.6771498 24.10512913 -71.78727955 17.81982987 -46.0559082 8.63769531 C-31.07633774 3.33498617 -15.93808583 0.28100095 0 0 Z " fill="#024BAD" transform="translate(1073.01953125,517.69140625)"/>
<path d="M0 0 C12.05497242 7.03030791 19.60845379 20.85255263 24.1875 33.6875 C24.88461922 36.63875598 25.52961741 39.59788513 26.16577148 42.56274414 C28.31570538 51.50576392 32.40445127 59.85227741 36.21118164 68.19116211 C36.73574951 69.36042236 37.26031738 70.52968262 37.80078125 71.734375 C38.28329346 72.78463867 38.76580566 73.83490234 39.26293945 74.91699219 C40.21867588 77.78092062 40.39514968 78.95741789 39.1875 81.6875 C34.40275615 84.91200129 28.14636019 85.97920476 22.60351562 87.34106445 C1.60718383 92.52437474 -15.18249419 101.64244949 -30.8125 116.6875 C-31.60237305 117.4307251 -31.60237305 117.4307251 -32.40820312 118.18896484 C-46.09676571 131.09566063 -53.46236558 143.31478157 -54.1652832 162.57446289 C-54.31473489 169.95444464 -54.27551117 177.3304924 -54.20373535 184.7109375 C-54.18209283 187.51242327 -54.18279949 190.31371187 -54.18401146 193.1152668 C-54.18332961 196.51702271 -54.16561328 199.91859844 -54.1484375 203.3203125 C-54.14621185 204.55403595 -54.14398621 205.7877594 -54.14169312 207.05886841 C-53.86817873 232.53715426 -44.6886516 255.54496178 -27.8125 274.6875 C-11.49428782 290.18270669 21.23723489 289.16282789 42.49012756 292.07511902 C51.75583233 293.34522397 61.01645008 294.64643191 70.27081299 295.99685669 C71.68302662 296.2025882 73.09541356 296.40713459 74.50799561 296.61032104 C88.54906978 298.63191047 102.45221892 300.85884899 116.0625 304.9375 C117.07844238 305.23978516 118.09438477 305.54207031 119.14111328 305.85351562 C145.61525216 313.88681801 145.61525216 313.88681801 156.1875 322.6875 C156.97511719 323.30367187 157.76273438 323.91984375 158.57421875 324.5546875 C168.35227877 332.60340467 174.29735099 344.15851226 176.1875 356.6875 C178.31423237 388.92274597 167.27282482 419.6923515 146.265625 444.140625 C128.55509926 464.1587111 104.79889889 479.12750411 77.68774414 480.84594727 C66.61838955 481.34491042 56.97838351 481.5249218 47.1875 475.6875 C46.22070312 475.12933594 45.25390625 474.57117187 44.2578125 473.99609375 C30.61429275 465.50876133 20.29144254 454.05738853 10.66015625 441.35546875 C1.16888813 428.84563107 -8.36932604 417.98954435 -24.8125 415.6875 C-36.90150817 414.86730979 -48.36637021 415.47050482 -59.8125 419.6875 C-60.76118906 425.7862154 -58.81038031 429.37194345 -55.35424805 434.36230469 C-52.54730589 438.15838914 -49.35861799 441.55476746 -46.11328125 444.9765625 C-45.46107605 445.66778702 -44.80887085 446.35901154 -44.13690186 447.07118225 C-37.1246603 454.4686827 -29.96634841 461.7197591 -22.75878906 468.92651367 C-20.54463974 471.14287813 -18.33867436 473.36718763 -16.1328125 475.59179688 C-8.67298703 483.08110432 -1.21658969 490.25210027 7.1875 496.6875 C8.14744873 497.43547852 9.10739746 498.18345703 10.09643555 498.95410156 C26.96546235 511.96012278 49.65962614 514.88490824 70.44775391 512.41943359 C99.23354781 507.62293199 127.03817168 485.61106669 146.78125 465.09375 C148.1875 463.6875 148.1875 463.6875 150.6875 461.75 C154.31520515 458.75714325 157.17864253 455.2915161 160.1875 451.6875 C160.61450195 451.19411133 161.04150391 450.70072266 161.48144531 450.19238281 C170.04586478 440.27914188 176.5391003 429.68637062 182.79882812 418.203125 C184.08535656 415.87253621 185.41183383 413.57324993 186.765625 411.28125 C197.24115674 393.4792077 202.97159195 373.68285795 199.7578125 352.91015625 C193.76097514 330.07034976 173.68616058 311.08202985 153.96655273 299.46850586 C145.58133507 294.77398456 136.94040564 292.4218385 127.62695312 290.26416016 C123.62606179 289.31839301 119.65937671 288.24734993 115.6875 287.1875 C114.10039091 286.77033657 112.51315116 286.35366988 110.92578125 285.9375 C107.79539884 285.11422293 104.66817749 284.28019374 101.54296875 283.4375 C84.9566088 278.98177449 68.30985995 274.98722724 51.328125 272.36328125 C47.49662644 271.76145832 43.70557608 271.00460756 39.90576172 270.22973633 C36.98269387 269.64664546 34.05370196 269.10719002 31.12109375 268.57421875 C-10.81923396 260.88403718 -10.81923396 260.88403718 -20.25 249.2265625 C-29.02406495 234.96870696 -30.95522656 214.55120382 -30.98046875 198.171875 C-30.98379715 197.39418762 -30.98712555 196.61650024 -30.99055481 195.81524658 C-30.99557822 194.18168725 -30.99796457 192.54811783 -30.99780273 190.91455078 C-30.99998254 188.45717868 -31.01816928 186.00026141 -31.03710938 183.54296875 C-31.1171123 161.37628303 -26.92687405 145.66987881 -11.0625 129.5625 C9.75350848 109.09091019 32.31626853 102.45845652 60.75 102.4375 C61.57285492 102.43682526 62.39570984 102.43615051 63.24349976 102.43545532 C77.09218203 102.4534356 90.52810004 103.27436309 104.1875 105.6875 C105.67612549 105.93693359 105.67612549 105.93693359 107.19482422 106.19140625 C121.67092359 108.66791303 134.83190611 112.59691799 148.1875 118.6875 C148.94095703 119.02185059 149.69441406 119.35620117 150.47070312 119.70068359 C160.55700741 124.21216484 170.12687292 128.80996108 174.5065918 139.61499023 C175.85228748 143.71094243 176.48526169 147.94290028 177.1875 152.1875 C177.53461616 154.16545944 177.88227329 156.14332402 178.23046875 158.12109375 C178.67451154 160.69066173 179.11624002 163.26042618 179.54541016 165.83251953 C185.72642437 202.58629222 201.93813793 230.55584957 232.12890625 252.1875 C246.31885485 262.13161579 260.86951604 268.99074116 277.1875 274.6875 C309.3965963 285.99851986 337.28774895 296.88799789 353.1875 328.6875 C353.08902895 337.17767355 351.1594349 345.53851149 349.4375 353.8125 C349.16687899 355.13439849 348.89686941 356.45642229 348.62744141 357.77856445 C348.0806054 360.45950027 347.53104039 363.13985409 346.97949219 365.81982422 C345.81632847 371.50010769 344.69079616 377.18771134 343.5625 382.875 C341.93085965 391.06371791 340.2540721 399.2413231 338.49560547 407.40380859 C337.5998817 411.59028367 336.84087106 415.76729182 336.1875 420 C335.37845763 424.43273634 334.11677133 427.1573525 331.1875 430.6875 C330.259375 431.80898437 330.259375 431.80898437 329.3125 432.953125 C324.70839986 438.31361302 319.79656307 442.83791665 314.26171875 447.21484375 C310.71190061 450.07003419 307.29705409 453.0566891 303.875 456.0625 C299.08521485 460.25250071 294.22339038 464.29694107 289.1875 468.1875 C278.82389907 476.20315502 269.06108178 484.93235231 259.359375 493.73046875 C257.42702519 495.47166885 255.4709207 497.17781829 253.5 498.875 C236.49598869 513.1805182 236.49598869 513.1805182 223.3125 530.75 C216.91987847 541.85116534 202.67349433 549.93206843 190.69360352 553.77832031 C172.77324869 558.42530878 154.06251733 558.24716516 135.6875 558.1875 C134.33928436 558.18682812 132.99106858 558.18639281 131.64285278 558.18618774 C110.76042556 558.16353254 90.38440095 556.87192863 69.79345703 553.30273438 C65.70843416 552.60576365 61.6148921 552.02864438 57.50976562 551.46582031 C48.46932059 550.20679584 39.53765382 548.43712762 30.6015625 546.58984375 C27.24304664 545.89573168 23.88090155 545.26460253 20.5 544.6875 C-4.85561641 540.08096721 -28.742524 532.31080839 -48.8125 515.6875 C-49.45445312 515.16027344 -50.09640625 514.63304687 -50.7578125 514.08984375 C-61.95357472 503.90951113 -68.62366792 488.78099374 -75.76928711 475.68554688 C-85.18043092 458.44852739 -94.70603216 441.43227632 -107.8125 426.6875 C-106.78551512 423.29844989 -105.60486117 421.46008604 -103.1875 418.8125 C-88.10071643 401.64352112 -77.91657634 371.39524871 -77.53125 348.859375 C-77.51284058 348.02915833 -77.49443115 347.19894165 -77.47546387 346.34356689 C-77.39714267 342.81054938 -77.32879169 339.27735957 -77.26025391 335.74414062 C-77.20861492 333.15745393 -77.15137059 330.57093424 -77.09375 327.984375 C-77.07338684 326.78128693 -77.07338684 326.78128693 -77.0526123 325.55389404 C-76.92540289 319.91330577 -76.92540289 319.91330577 -75.8125 317.6875 C-71.81493454 319.25336666 -69.71062988 321.85106388 -66.9375 325.0625 C-50.76475007 343.12769007 -29.81618151 356.83582265 -8.8125 368.6875 C-7.85972168 369.22987305 -7.85972168 369.22987305 -6.88769531 369.78320312 C0.63915724 374.05807408 8.2354806 378.19380131 15.890625 382.234375 C30.98380411 390.20759555 45.67296315 398.5282305 59.80078125 408.13671875 C60.85652344 408.85472656 61.91226562 409.57273437 63 410.3125 C63.87269531 410.92351562 64.74539063 411.53453125 65.64453125 412.1640625 C70.97255898 415.35596851 76.08624999 416.42111724 82.1875 415.6875 C86.66076324 414.37183434 88.68676365 412.40071272 91.125 408.5625 C93.5875706 403.64532828 93.83052102 399.91529417 92.1875 394.6875 C87.48669611 382.75469013 73.54149549 376.99903659 62.8125 371.625 C61.54780479 370.98184532 60.28365611 370.33761495 59.02001953 369.69238281 C56.3977399 368.35476218 53.77321583 367.0217281 51.14648438 365.69287109 C17.42945974 348.62810991 -14.33154844 330.39274095 -43.625 306.3125 C-49.528882 301.46243708 -55.5477453 296.79810088 -61.6875 292.25 C-62.44780518 291.68297363 -63.20811035 291.11594727 -63.99145508 290.53173828 C-67.8887738 287.66973071 -71.75892602 285.15171451 -76.0078125 282.83984375 C-84.18005989 278.01492988 -87.71676067 269.55424214 -91.375 261.125 C-91.7862915 260.17971436 -92.19758301 259.23442871 -92.62133789 258.26049805 C-96.90522792 248.03935604 -100.33518576 237.53645098 -103.75 227 C-104.03094513 226.13446503 -104.31189026 225.26893005 -104.60134888 224.37716675 C-116.91432471 186.26738038 -125.08700443 141.57314909 -107.8125 103.6875 C-101.66013682 92.86667696 -91.59725855 87.17252554 -80.75 81.8125 C-78.33489014 80.59176789 -75.92512167 79.36067359 -73.515625 78.12890625 C-71.7840918 77.24549561 -71.7840918 77.24549561 -70.01757812 76.34423828 C-56.19680372 69.57568317 -56.19680372 69.57568317 -45.8125 58.6875 C-45.02253357 55.31218889 -45.29537357 53.6346766 -46.94921875 50.60546875 C-47.83949185 49.18970495 -48.76182468 47.79346796 -49.71875 46.421875 C-50.8125 44.6875 -50.8125 44.6875 -50.8125 42.6875 C-59.36179573 38.87085012 -67.65296279 40.38192464 -76.296875 43.30078125 C-92.45421211 49.67395311 -107.33714341 58.56171557 -119.8125 70.6875 C-120.83923828 71.62142578 -120.83923828 71.62142578 -121.88671875 72.57421875 C-134.38153417 84.2835055 -145.87817089 102.6868461 -146.95898438 120.03930664 C-147.14861565 127.51551984 -145.97342768 134.45396842 -144.4375 141.75 C-144.17783447 143.01424805 -143.91816895 144.27849609 -143.65063477 145.58105469 C-141.22451892 157.24622441 -138.49967683 168.84511537 -135.75 180.4375 C-135.43920502 181.75078781 -135.43920502 181.75078781 -135.12213135 183.09060669 C-132.60625196 193.68397278 -129.893093 204.19881989 -126.93530273 214.67724609 C-125.49050075 219.80346765 -124.18336497 224.96261064 -122.875 230.125 C-119.55817392 242.99808695 -115.68764019 255.63921217 -111.125 268.125 C-106.26865966 281.5577619 -104.00180751 295.16826347 -103.28125 309.390625 C-103.21857437 310.62242241 -103.21857437 310.62242241 -103.15463257 311.87910461 C-102.74678843 320.36128811 -102.52287564 328.84019235 -102.46240234 337.33178711 C-102.44574684 339.03277171 -102.41833259 340.73368367 -102.38037109 342.43432617 C-102.11523098 354.50281268 -103.43329531 364.43626629 -107.8125 375.6875 C-108.1866806 376.67808914 -108.1866806 376.67808914 -108.56842041 377.68869019 C-110.32746323 382.34357078 -112.18092018 386.95607135 -114.0625 391.5625 C-114.60992926 392.917745 -115.15680587 394.27321336 -115.703125 395.62890625 C-119.57718417 405.21686834 -119.57718417 405.21686834 -120.8125 407.6875 C-123.09399414 408.35766602 -123.09399414 408.35766602 -126.09765625 408.94140625 C-127.18626953 409.15603516 -128.27488281 409.37066406 -129.39648438 409.59179688 C-130.54439453 409.80900391 -131.69230469 410.02621094 -132.875 410.25 C-134.55625977 410.58161133 -134.55625977 410.58161133 -136.27148438 410.91992188 C-155.35817527 414.62966626 -174.30390161 416.6472394 -191.55078125 405.9609375 C-198.28752986 401.26538338 -204.54504473 395.98435205 -210.8125 390.6875 C-212.11581081 389.59235912 -213.41919422 388.49730464 -214.72265625 387.40234375 C-217.7626758 384.84241229 -220.79098525 382.26923949 -223.8125 379.6875 C-222.1962447 375.60086579 -219.26054688 372.89799134 -216.17578125 369.890625 C-215.61811569 369.33816101 -215.06045013 368.78569702 -214.48588562 368.2164917 C-212.70362195 366.45199486 -210.91483665 364.69431205 -209.125 362.9375 C-202.11683871 356.03951486 -195.17160479 349.19891024 -188.8125 341.6875 C-187.48064962 340.24862593 -186.14762561 338.81083552 -184.8125 337.375 C-169.53427597 320.1168127 -164.24698668 299.46590486 -165.51953125 276.83935547 C-168.41604111 245.67773685 -181.70662052 214.28994991 -193.87646484 185.71069336 C-198.82174158 174.03238213 -203.24694348 162.21289532 -206.6875 150 C-206.89076904 149.28191162 -207.09403809 148.56382324 -207.3034668 147.82397461 C-214.64373353 120.66594139 -206.20298792 92.62455177 -192.8125 68.6875 C-186.7880689 61.39476761 -175.55307522 60.23519298 -166.625 58.875 C-161.3123602 57.90586173 -157.28731198 55.16611407 -152.75 52.34765625 C-150.05051627 50.82201718 -147.79648456 49.94784222 -144.8125 49.1875 C-136.75252031 47.069172 -129.95478182 42.21667929 -123.21484375 37.46484375 C-117.35733988 33.33843854 -111.3773137 29.41171557 -105.375 25.5 C-104.80935333 25.13099579 -104.24370667 24.76199158 -103.66091919 24.38180542 C-90.3472066 15.69892907 -76.99438586 7.09464119 -63.3125 -1 C-62.59956787 -1.42273193 -61.88663574 -1.84546387 -61.15209961 -2.28100586 C-45.00053603 -11.73485684 -16.72999893 -7.56356239 0 0 Z " fill="#FDFEFE" transform="translate(1207.8125,675.3125)"/>
<path d="M0 0 C9.48680156 -0.97199711 17.09585436 4.06557784 25.18551636 8.38500977 C29.62373384 10.74917797 34.10310105 13.03221882 38.58374023 15.31469727 C39.4593309 15.76183075 40.33492157 16.20896423 41.23704529 16.66964722 C51.38518883 21.81095124 61.75746948 25.98461821 72.63061523 29.34985352 C73.37069824 29.58575195 74.11078125 29.82165039 74.87329102 30.06469727 C84.72782973 33.11003129 94.28732539 33.71748577 104.56298828 33.99731445 C114.43696686 34.286696 123.9189671 35.61733085 133.63061523 37.34985352 C134.70311523 37.53596191 135.77561523 37.72207031 136.88061523 37.91381836 C148.63565766 39.9606916 160.29140527 42.05061892 171.77514648 45.31469727 C176.84000284 46.67456245 181.9439108 47.80031851 187.06811523 48.91235352 C188.06327148 49.12980225 189.05842773 49.34725098 190.08374023 49.57128906 C194.37524955 50.49468447 198.65418722 51.38737267 202.99389648 52.05297852 C218.6930399 54.51435175 237.58521762 60.87569566 248.31811523 73.16235352 C255.21387376 82.9340682 259.08617312 94.82839371 263.24682617 105.93359375 C269.69531974 123.11415158 276.79637147 139.16569731 288.63061523 153.34985352 C289.27901367 154.17227539 289.92741211 154.99469727 290.59545898 155.84204102 C311.12430623 180.50817993 344.90276255 193.41866562 374.87060547 202.06958008 C389.96870729 206.48006053 389.96870729 206.48006053 394.36889648 212.78735352 C402.43452993 229.16833043 403.45535956 248.96519169 405.28198242 266.87158203 C407.05797852 284.09407054 410.2564649 299.91447374 418.13061523 315.47485352 C418.89414307 317.02922119 418.89414307 317.02922119 419.6730957 318.61499023 C424.01642882 327.36372296 428.65284326 335.95871459 433.44116211 344.47143555 C438.74973654 354.00543739 440.96049533 362.36646884 439.63061523 373.34985352 C438.13719608 377.68186717 435.98642534 381.43176933 433.63061523 385.34985352 C432.93579169 386.56405018 432.24451682 387.78028293 431.55639648 388.99829102 C430.20759648 391.38348514 428.84247525 393.75553751 427.46264648 396.12329102 C425.74204185 399.15360962 424.15836823 402.21866935 422.63061523 405.34985352 C416.9276312 405.87973707 413.29724088 404.09379123 408.31811523 401.66235352 C399.86271945 397.68969543 391.2853431 394.17730354 382.57965088 390.80316162 C311.60845317 363.28851731 311.60845317 363.28851731 297.63061523 332.34985352 C295.33294648 326.60568164 293.38746535 320.74411671 291.47729492 314.86206055 C290.58023529 312.20036978 289.59351106 309.58217224 288.59936523 306.95532227 C286.54036439 301.34420082 285.20034264 295.67065704 283.88061523 289.84985352 C279.29277703 270.64724167 271.99210849 248.77178106 254.86108398 237.33422852 C228.17214353 220.9400547 199.59982884 214.13664671 168.57543945 211.42504883 C157.47508685 210.38926174 157.47508685 210.38926174 152.63061523 207.34985352 C151.35717773 204.75219727 151.35717773 204.75219727 150.63061523 201.34985352 C150.23009175 199.89051026 149.82044612 198.43365438 149.40405273 196.97875977 C149.18048096 196.16785889 148.95690918 195.35695801 148.7265625 194.52148438 C145.94334954 184.44894903 142.73930814 174.60651291 139.08325195 164.81494141 C138.7495459 163.89704834 138.41583984 162.97915527 138.07202148 162.03344727 C137.76981689 161.22447998 137.4676123 160.4155127 137.15625 159.58203125 C136.56682826 157.07897369 136.72981526 155.73808153 137.63061523 153.34985352 C148.27290148 143.07560023 170.35889597 139.87279958 184.43139648 136.87719727 C186.21477417 136.49615845 186.21477417 136.49615845 188.03417969 136.10742188 C190.37497998 135.61434582 192.71851144 135.13400662 195.06494141 134.66845703 C202.22472027 133.17070784 208.27299161 130.98073112 214.63061523 127.34985352 C214.33164086 125.37678065 214.33164086 125.37678065 213.63061523 123.34985352 C207.46959916 120.5627272 200.73958598 120.29623039 194.07202148 120.109375 C185.41985033 119.85413595 177.13734977 118.88640557 168.63061523 117.28735352 C153.74558147 114.05889383 153.74558147 114.05889383 139.50170898 117.89282227 C133.11935339 122.86279854 128.65672444 129.42997833 124.63061523 136.34985352 C121.91802935 135.07634249 119.63335085 133.6896101 117.30249023 131.81079102 C104.52029124 121.72831602 91.57674239 114.24916389 75.63061523 110.34985352 C74.76307617 110.12555664 73.89553711 109.90125977 73.00170898 109.67016602 C45.38865404 103.80188942 14.3574744 109.41448297 -9.36938477 124.34985352 C-16.21539324 128.99330667 -22.70529536 134.13556071 -29.08032227 139.40063477 C-49.96840014 156.61666483 -74.09085142 167.72396215 -98.84594727 178.26391602 C-116.90922597 185.96503865 -130.02931542 194.15330889 -137.61938477 212.91235352 C-141.4892982 222.743182 -142.73159778 230.84432361 -142.68188477 241.34985352 C-142.67769531 242.55013184 -142.67350586 243.75041016 -142.66918945 244.98706055 C-142.55318323 254.13797694 -141.71261587 262.49878406 -139.36938477 271.34985352 C-139.12575195 272.33083008 -138.88211914 273.31180664 -138.63110352 274.32250977 C-133.87264505 291.43942907 -126.31912442 307.83690078 -118.24438477 323.59985352 C-108.37048334 342.90653045 -97.88663943 365.21135401 -97.36938477 387.34985352 C-97.31911133 388.50743164 -97.26883789 389.66500977 -97.21704102 390.85766602 C-96.42580136 422.1907565 -117.66197731 446.97705564 -135.89672852 470.4440918 C-138.31640942 473.57539636 -140.71176754 476.72507957 -143.10424805 479.87719727 C-144.49053545 481.69386908 -145.88741079 483.50250941 -147.29467773 485.30297852 C-150.61400622 489.5732247 -153.70838211 493.78769163 -156.40844727 498.47875977 C-162.88629034 509.28357387 -162.88629034 509.28357387 -169.01391602 511.15942383 C-176.55276836 512.30522953 -183.88024853 511.5243664 -191.36938477 510.34985352 C-192.24111328 510.21595215 -193.1128418 510.08205078 -194.01098633 509.9440918 C-214.44929174 506.33757066 -234.28584714 496.23846356 -253.36938477 488.34985352 C-250.28152289 478.89128291 -250.28152289 478.89128291 -248.46704102 474.70141602 C-248.13381836 473.92282227 -247.8005957 473.14422852 -247.45727539 472.34204102 C-247.11889648 471.56086914 -246.78051758 470.77969727 -246.43188477 469.97485352 C-241.58407527 458.76604544 -237.77122187 447.80788306 -235.18188477 435.84985352 C-234.92213867 434.70387695 -234.66239258 433.55790039 -234.39477539 432.37719727 C-231.79157261 420.5517955 -231.11818407 408.9473431 -231.01928711 396.87255859 C-231.00278458 395.40787809 -230.97556959 393.94327621 -230.93725586 392.47900391 C-230.52745137 376.61244296 -234.68292145 363.78377143 -241.68188477 349.53735352 C-242.16117432 348.55178467 -242.64046387 347.56621582 -243.13427734 346.55078125 C-247.55595375 337.6476062 -252.32673732 330.13680139 -259.61938477 323.28735352 C-271.6575274 311.46123296 -270.69380591 289.21735281 -270.86938477 273.53735352 C-270.84530955 262.58525473 -269.95211038 253.36395764 -265.36938477 243.34985352 C-264.92336914 242.36758789 -264.47735352 241.38532227 -264.01782227 240.37329102 C-258.63047507 229.68888737 -250.80161509 220.56557856 -242.69360352 211.86157227 C-240.74585367 209.75669302 -238.8941034 207.61247953 -237.05688477 205.41235352 C-221.81398189 188.06213688 -202.22221689 174.8380134 -182.36938477 163.34985352 C-181.0788954 162.58704374 -179.78852704 161.82402922 -178.49829102 161.06079102 C-155.65596279 147.71484337 -130.68294909 136.63062434 -105.11938477 129.66235352 C-91.87001938 126.04009508 -80.06763797 119.96363332 -69.36938477 111.34985352 C-51.79868278 97.26531653 -36.22125241 86.00332334 -13.14648438 83.70629883 C-11.23552302 83.51405165 -11.23552302 83.51405165 -9.28595638 83.31792068 C4.31082568 82.04974704 17.85464184 81.95140848 31.50170898 82.02172852 C34.20395059 82.02480734 36.90617252 82.02676755 39.6084137 82.02740479 C45.24811396 82.03105854 50.88768984 82.04577947 56.52734375 82.06860352 C62.16212146 82.09137608 67.79681754 82.1057578 73.43164062 82.10961914 C74.46111661 82.11035344 74.46111661 82.11035344 75.51139009 82.11110258 C76.89605124 82.11206124 78.2807124 82.1130084 79.66537356 82.11394405 C92.1183411 82.12314606 104.5703796 82.17599079 117.02299762 82.26972103 C125.51631384 82.33304658 134.00747009 82.35134246 142.50091952 82.30367827 C148.20246352 82.2728299 153.90349447 82.27267818 159.60507947 82.29399323 C162.95830155 82.30507414 166.30842941 82.29628407 169.6616497 82.25759125 C185.61757622 82.08267812 197.40262077 83.04258061 210.63061523 92.34985352 C211.96900871 93.24201486 213.30890485 94.131926 214.65028381 95.01959229 C224.99548156 101.90846938 232.99523293 109.80497568 239.63061523 120.34985352 C240.01733398 120.95829102 240.40405273 121.56672852 240.80249023 122.19360352 C244.80877593 132.62506439 240.7947593 146.15851399 237.63061523 156.34985352 C237.30061523 157.00985352 236.97061523 157.66985352 236.63061523 158.34985352 C235.81232499 171.3351807 236.05140665 181.23095432 244.75561523 191.53735352 C250.46587386 197.47823648 256.82202296 201.69695725 263.88061523 205.87329102 C279.80462114 215.31757282 290.94811418 223.56010947 295.90795898 242.14550781 C297.25709227 248.12772887 297.91014199 254.20301801 298.63061523 260.28735352 C299.7264769 269.51395154 301.12659089 278.39372054 303.63061523 287.34985352 C303.83968506 288.10419678 304.04875488 288.85854004 304.26416016 289.63574219 C304.70826497 291.21036678 305.16704573 292.78084906 305.63061523 294.34985352 C310.15134615 294.2594389 312.1885813 293.73663321 315.63061523 290.72485352 C326.67587191 276.3334467 329.94476276 259.03217778 328.63061523 241.34985352 C326.08437988 222.31674422 313.2673187 209.56763003 298.63061523 198.34985352 C297.75276367 197.66753662 297.75276367 197.66753662 296.85717773 196.97143555 C288.60607106 190.56698475 280.19334508 184.57948514 271.30200195 179.09057617 C266.74431157 176.2391375 262.10578918 173.30020141 259.63061523 168.34985352 C259.15808641 160.34983057 259.63266785 152.53383973 260.63061523 144.59985352 C263.05803204 123.90117473 261.59964831 109.96976485 249.06811523 92.78735352 C247.60575261 90.96126868 246.12803508 89.14730284 244.63061523 87.34985352 C244.05698242 86.61379883 243.48334961 85.87774414 242.89233398 85.11938477 C232.06601318 71.76089346 216.99801219 65.12446647 200.26464844 63.05761719 C192.41456171 62.24293764 184.57930188 62.14980274 176.69311523 62.16235352 C175.62243301 62.16325989 175.62243301 62.16325989 174.53012085 62.16418457 C152.46663092 62.21390238 130.51290513 63.73923522 108.52124023 65.40844727 C107.29870041 65.50084686 106.07616058 65.59324646 104.8165741 65.68844604 C98.69085089 66.15271615 92.56609504 66.6263538 86.44238281 67.11645508 C84.18352244 67.29204044 81.92465244 67.46750188 79.66577148 67.64282227 C78.62467224 67.72914413 77.583573 67.815466 76.51092529 67.90440369 C75.06208954 68.01504906 75.06208954 68.01504906 73.58398438 68.12792969 C72.74436661 68.19517746 71.90474884 68.26242523 71.03968811 68.33171082 C66.02136473 68.36950375 62.765198 67.06117498 58.63842773 64.28735352 C57.69354492 63.65958008 56.74866211 63.03180664 55.77514648 62.38500977 C54.28047852 61.37760742 54.28047852 61.37760742 52.75561523 60.34985352 C50.67608399 58.97304247 48.59535462 57.59803934 46.51342773 56.22485352 C45.503125 55.55711914 44.49282227 54.88938477 43.4519043 54.20141602 C18.97305209 38.1363749 -7.40343651 26.13212688 -37.38110352 29.70922852 C-45.4498062 31.45253946 -53.077673 34.94574285 -60.71850586 38.00195312 C-80.9275552 46.01736361 -110.44603406 52.06985557 -131.49438477 43.41235352 C-166.51038582 29.7536297 -222.75919651 39.16984838 -256.00610352 52.85766602 C-264.58732121 56.66489617 -272.43867054 61.55948266 -280.32641602 66.61547852 C-288.06832859 71.02807053 -296.20402532 71.36698455 -304.90869141 71.89428711 C-316.51811531 72.63758685 -327.11771272 74.3824274 -338.23754883 77.73266602 C-340.88622977 78.49948524 -343.55545445 79.1267155 -346.24253845 79.74247742 C-363.19272075 83.70322894 -379.17228083 90.29828432 -394.94360352 97.55615234 C-397.62832374 98.79146658 -400.31855869 100.01404901 -403.01000977 101.23461914 C-416.75403884 107.4903477 -430.50694265 113.84982608 -443.55688477 121.47485352 C-444.72127075 122.15354492 -444.72127075 122.15354492 -445.90917969 122.84594727 C-459.40908668 130.82359265 -472.7138979 139.4194558 -484.74835205 149.50164795 C-487.08762788 151.40874374 -489.43761992 153.04407332 -492.03677368 154.57521057 C-498.88882968 158.80138371 -498.88882968 158.80138371 -503.11452484 165.41352463 C-504.03061706 170.40669221 -503.82574122 175.39470202 -503.54575729 180.44334221 C-503.38965828 183.31030802 -503.32613523 186.16694804 -503.2850647 189.03773499 C-503.16582474 196.15361837 -502.90238918 203.26241979 -502.62322998 210.37359619 C-502.39010301 216.39869165 -502.22268011 222.41846616 -502.14430618 228.44763374 C-502.08161162 231.25692253 -501.92442631 234.0503612 -501.76327515 236.85545349 C-501.39910849 248.87731681 -501.39910849 248.87731681 -504.93015289 253.30849075 C-508.74701576 256.8960539 -512.99827555 259.62424594 -517.52052689 262.23515511 C-526.38912764 267.58214001 -532.07166882 277.50263677 -534.93383789 287.27758789 C-535.38746616 289.43588204 -535.57569619 291.47608198 -535.68579102 293.67797852 C-535.74863281 294.87680664 -535.74863281 294.87680664 -535.81274414 296.09985352 C-535.85206055 296.92485352 -535.89137695 297.74985352 -535.93188477 298.59985352 C-535.99666016 299.86055664 -535.99666016 299.86055664 -536.06274414 301.14672852 C-536.16847019 303.21426022 -536.26939772 305.28203632 -536.36938477 307.34985352 C-578.9917387 283.57720322 -578.9917387 283.57720322 -583.36938477 269.34985352 C-585.29768991 252.68113885 -580.37773477 236.80564481 -576.18579102 220.83422852 C-571.80022972 203.97456095 -569.96305855 187.78336213 -569.92333984 170.34912109 C-569.80801964 162.10625807 -568.81438241 156.61217876 -563.60766602 150.17016602 C-547.01728577 135.5652471 -525.80348798 128.37218378 -505.60272217 120.25012207 C-502.84121424 119.13694556 -500.08450966 118.01223241 -497.328125 116.88644409 C-484.0737376 111.47635593 -470.7411259 106.29462617 -457.30688477 101.34985352 C-456.1004834 100.90480469 -454.89408203 100.45975586 -453.65112305 100.0012207 C-447.96130685 97.92888135 -442.27002097 95.98843559 -436.46704102 94.25610352 C-413.28992188 87.24495048 -391.43917661 71.7770854 -371.86547852 57.86547852 C-332.72499088 30.38147711 -283.91272329 11.80964569 -235.93188477 12.09985352 C-234.60451797 12.10350922 -234.60451797 12.10350922 -233.25033569 12.10723877 C-215.89664375 12.16280291 -198.66756592 13.00238079 -181.36938477 14.34985352 C-180.33346191 14.42461914 -179.29753906 14.49938477 -178.23022461 14.57641602 C-168.84326763 15.25647059 -159.63961328 16.25549012 -150.37304688 17.91870117 C-131.51185987 21.27147402 -111.1330146 23.24954477 -92.6496582 17.10375977 C-89.84189444 16.17545414 -87.01719009 15.30994256 -84.18969727 14.44360352 C-80.76750986 13.39342549 -77.34561161 12.34249993 -73.92578125 11.28466797 C-51.25578643 4.27626284 -28.54692586 0.74056677 -4.76806641 0.43212891 C-2.36616509 0.3946007 -2.36616509 0.3946007 0 0 Z " fill="#FDFDFE" transform="translate(1123.369384765625,542.650146484375)"/>
<path d="M0 0 C1.66315433 1.43854828 3.3083229 2.89808245 4.9375 4.375 C5.84757813 5.16648437 6.75765625 5.95796875 7.6953125 6.7734375 C15.04380895 13.29890235 21.73814818 20.35445198 28.39453125 27.578125 C37.34396374 37.23630118 44.31268812 44.60338569 58.0625 45.25 C60.69044392 45.33509114 63.3076045 45.36889815 65.9375 45.375 C62.72884252 49.34360267 59.46300541 52.88436449 55.625 56.25 C44.14968074 66.40391886 33.33386899 77.26487823 23.9375 89.375 C22.98994429 90.53627991 22.03920405 91.69496589 21.0859375 92.8515625 C11.18177481 104.91657589 2.63248409 117.38519401 -4.48876953 131.2980957 C-7.59840658 137.17925116 -10.69866281 140.86723102 -16.9296875 143.66015625 C-28.3998294 146.27740808 -38.74819215 144.79320221 -49.0625 139.375 C-52.63953702 137.52923431 -56.22432775 135.69901542 -59.8125 133.875 C-60.76068604 133.39071533 -61.70887207 132.90643066 -62.68579102 132.4074707 C-70.61789354 128.42954199 -78.47314877 125.5923012 -87.0625 123.375 C-87.71992187 123.17777344 -88.37734375 122.98054687 -89.0546875 122.77734375 C-103.37258262 119.90819356 -115.49325562 124.51989406 -127.6640625 131.69140625 C-130.28343352 133.31388547 -130.28343352 133.31388547 -132.0625 136.375 C-132.83045735 141.59710998 -132.89175566 145.96526539 -130.1875 150.5625 C-123.62457882 154.36899429 -117.0980395 152.39548632 -110 150.875 C-101.19860568 149.09980703 -92.37819263 149.03302426 -83.4375 149 C-82.74147675 148.99250732 -82.04545349 148.98501465 -81.32833862 148.97729492 C-68.84111298 148.86708597 -56.86258905 150.24858576 -45.08984375 154.7265625 C-38.96970386 156.68406389 -32.55222771 156.67445909 -26.1875 156.9375 C-25.21296875 156.98068359 -24.2384375 157.02386719 -23.234375 157.06835938 C-20.84387198 157.17382274 -18.45327556 157.27594175 -16.0625 157.375 C-16.15337891 157.99729492 -16.24425781 158.61958984 -16.33789062 159.26074219 C-21.28546315 190.81052443 -21.28546315 190.81052443 -11.26953125 220.234375 C-5.01922274 228.53375373 3.0378034 235.42277697 11.5 241.375 C20.4883724 247.77873313 28.18562759 254.7642068 31.9375 265.375 C32.56205833 269.38401721 32.55762145 273.26336687 32.4375 277.3125 C32.41905029 278.40715576 32.40060059 279.50181152 32.3815918 280.62963867 C32.12283495 290.40180825 31.00231683 299.8277183 28.9375 309.375 C28.76057617 310.19307129 28.58365234 311.01114258 28.40136719 311.85400391 C23.22760555 335.10018852 15.11873862 366.13719447 -6.01171875 380.23828125 C-17.99850271 386.88238436 -30.33268107 387.72428479 -43.8125 387.625 C-44.4774649 387.62156586 -45.14242981 387.61813171 -45.82754517 387.61459351 C-58.87979122 387.53548423 -70.83879269 386.31855495 -83.5 383.125 C-84.57254028 382.85490112 -84.57254028 382.85490112 -85.66674805 382.5793457 C-99.55182659 378.8316509 -112.63152303 372.9435931 -125.5625 366.75 C-126.3137616 366.39238586 -127.06502319 366.03477173 -127.83905029 365.6663208 C-139.95899278 359.89662201 -152.02606277 354.01605704 -164.05297852 348.05499268 C-165.79022577 347.19445882 -167.52864666 346.33628968 -169.26831055 345.48065186 C-194.8360532 332.88450531 -194.8360532 332.88450531 -198.5625 324.5 C-199.22765625 323.08074219 -199.22765625 323.08074219 -199.90625 321.6328125 C-203.40021112 311.78834097 -204.08603355 301.36176345 -205.16162109 291.03588867 C-206.67507576 276.65150342 -209.46636922 263.96952759 -217.0625 251.4375 C-218.22174924 249.45226916 -219.37791344 247.46523418 -220.53125 245.4765625 C-221.11648438 244.47270508 -221.70171875 243.46884766 -222.3046875 242.43457031 C-243.77568133 205.06311271 -243.77568133 205.06311271 -241.0625 192.375 C-235.31002415 175.39591805 -221.2916726 164.92321036 -205.84643555 157.25390625 C-205.13512985 156.90013916 -204.42382416 156.54637207 -203.69096375 156.18188477 C-203.15357071 155.91561279 -202.61617767 155.64934082 -202.0625 155.375 C-202.07297363 156.59493652 -202.08344727 157.81487305 -202.09423828 159.07177734 C-202.13069116 163.63782772 -202.15349176 168.20386546 -202.17236328 172.77001953 C-202.1823636 174.7387916 -202.19596823 176.70754905 -202.21337891 178.67626953 C-202.2378917 181.52119581 -202.24904306 184.36592415 -202.2578125 187.2109375 C-202.26813507 188.07802338 -202.27845764 188.94510925 -202.28909302 189.83847046 C-202.29199472 205.97599858 -196.98726924 218.29312817 -185.7890625 229.78515625 C-182.32218401 233.21351897 -178.66286107 236.22264673 -174.75 239.125 C-174.06776367 239.63305176 -173.38552734 240.14110352 -172.68261719 240.66455078 C-160.88134572 249.30295316 -146.70943181 259.66815293 -132.375 263.3125 C-127.3855686 264.91288366 -124.02271329 268.0137617 -120.0625 271.375 C-119.51577637 271.83293945 -118.96905273 272.29087891 -118.40576172 272.76269531 C-106.81390605 282.47384772 -106.81390605 282.47384772 -102.375 287.0625 C-94.26529129 295.41672254 -83.93199566 305.62182894 -71.75 305.875 C-67.77619767 305.74766855 -64.63291127 305.16646951 -61.0625 303.375 C-58.09827029 298.01115577 -58.43427323 291.32783173 -59.0625 285.375 C-62.67935579 273.12616364 -71.45620567 263.95016508 -82.0625 257.375 C-103.92985133 245.7753751 -130.27795745 237.12874194 -154.25 231 C-167.14678361 227.15021385 -180.43973495 217.2389599 -187.0625 205.375 C-188.32435564 202.09119457 -189.25387943 198.79563955 -190.0625 195.375 C-190.23450928 194.76785156 -190.40651855 194.16070313 -190.58374023 193.53515625 C-193.46973561 180.51359221 -191.21345449 165.12330074 -188.0625 152.375 C-187.89089355 151.63330566 -187.71928711 150.89161133 -187.54248047 150.12744141 C-181.87292019 125.66067948 -171.97230285 99.7069763 -150.0625 85.375 C-149.31484375 84.88515625 -148.5671875 84.3953125 -147.796875 83.890625 C-138.28783985 77.93980946 -128.29314968 72.22301119 -116.849823 72.26820374 C-115.82075836 72.26971939 -114.79169373 72.27123505 -113.73144531 72.27279663 C-112.61334473 72.279534 -111.49524414 72.28627136 -110.34326172 72.29321289 C-109.15741486 72.29627945 -107.97156799 72.29934601 -106.74978638 72.30250549 C-103.50615955 72.3115195 -100.26258096 72.32485407 -97.01897573 72.33946919 C-93.62245296 72.35318919 -90.22591891 72.35962309 -86.82937622 72.36631775 C-75.26560762 72.39044566 -63.70189093 72.42641207 -52.13818359 72.47094727 C-45.74660721 72.4954858 -39.35505092 72.51285228 -32.96343434 72.52250665 C-29.5824946 72.5279784 -26.20166197 72.53738844 -22.82076645 72.55589485 C-19.05478772 72.57502936 -15.28896988 72.5819955 -11.52294922 72.58618164 C-10.40080017 72.59494324 -9.27865112 72.60370483 -8.12249756 72.61273193 C-7.09907257 72.61142776 -6.07564758 72.6101236 -5.02120972 72.60877991 C-4.13079924 72.61192231 -3.24038876 72.61506472 -2.32299614 72.61830235 C0.21968946 72.52088243 0.21968946 72.52088243 2.9375 70.375 C6.16511398 64.56745377 7.81637211 58.96654081 6.9375 52.375 C4.34838407 46.87312866 0.38006831 43.83109578 -5.0625 41.375 C-8.6492849 40.65090228 -12.09952233 40.6133865 -15.75 40.6875 C-17.25578613 40.70574829 -17.25578613 40.70574829 -18.79199219 40.72436523 C-33.58200397 41.2177526 -47.35182642 46.38938754 -60.96972656 51.83813477 C-75.93564715 57.68992734 -91.35084335 59.47481065 -107.21728516 61.08129883 C-122.0137109 62.60353676 -136.03622119 65.17600046 -149.375 72.125 C-150.03395264 72.46515137 -150.69290527 72.80530273 -151.37182617 73.15576172 C-169.77669251 82.99412171 -180.07102154 99.70026299 -189.30859375 117.75390625 C-199.24880723 137.10376908 -199.24880723 137.10376908 -206.0625 139.375 C-207.79045352 139.44302967 -209.52085365 139.45995645 -211.25 139.4375 C-212.15105469 139.42847656 -213.05210937 139.41945313 -213.98046875 139.41015625 C-215.01107422 139.39275391 -215.01107422 139.39275391 -216.0625 139.375 C-218.55814323 135.56510526 -218.40257944 131.63182623 -218.43359375 127.234375 C-218.44713646 126.03461029 -218.44713646 126.03461029 -218.46095276 124.81060791 C-218.47545406 123.11270882 -218.48434171 121.41475387 -218.48803711 119.71679688 C-218.49977036 117.17475201 -218.5488087 114.63527064 -218.59960938 112.09375 C-218.78216237 93.91729017 -214.28856601 79.16830542 -201.52734375 65.69921875 C-184.41461147 49.49378891 -162.77998216 37.33076894 -142.0625 26.375 C-141.19093262 25.91125977 -140.31936523 25.44751953 -139.42138672 24.96972656 C-116.40780317 12.81972319 -92.36528898 2.63852468 -67.0625 -3.625 C-65.22365234 -4.09486328 -65.22365234 -4.09486328 -63.34765625 -4.57421875 C-60.26225004 -5.32630944 -57.17552209 -5.99824488 -54.0625 -6.625 C-52.64324219 -6.93244141 -52.64324219 -6.93244141 -51.1953125 -7.24609375 C-33.54273937 -10.5702796 -14.79605482 -11.30641925 0 0 Z " fill="#FDFEFE" transform="translate(848.0625,646.625)"/>
<path d="M0 0 C0.98097656 -0.00128906 1.96195313 -0.00257812 2.97265625 -0.00390625 C4.49439453 0.00189453 4.49439453 0.00189453 6.046875 0.0078125 C7.54541016 0.00201172 7.54541016 0.00201172 9.07421875 -0.00390625 C18.39368787 0.00827606 26.70558795 0.72740325 35.546875 3.7578125 C36.32764404 4.02432617 37.10841309 4.29083984 37.9128418 4.56542969 C64.15485804 13.83586808 81.47741753 32.33330647 93.484375 57.09765625 C99.29777723 70.54114891 101.17069331 84.09607849 101.16748047 98.61010742 C101.17183485 100.80011992 101.2082266 102.9880785 101.24609375 105.17773438 C101.32734753 115.3755497 99.73682386 124.38459722 96.796875 134.1328125 C96.55066406 134.96143799 96.30445313 135.79006348 96.05078125 136.64379883 C88.56216697 160.30542268 72.69796003 179.72949049 50.9296875 191.7109375 C36.96914834 198.42818243 22.21142705 201.50169079 6.796875 201.3828125 C5.79398438 201.39054687 4.79109375 201.39828125 3.7578125 201.40625 C-17.42815476 201.3515059 -37.4471268 193.26319184 -53.203125 179.1328125 C-54.09773437 178.33230469 -54.99234375 177.53179688 -55.9140625 176.70703125 C-74.18569819 159.43342608 -85.32941428 134.55215076 -86.31152344 109.35131836 C-86.37324939 106.1944408 -86.38872521 103.04027102 -86.390625 99.8828125 C-86.40287109 98.82707031 -86.41511719 97.77132813 -86.42773438 96.68359375 C-86.47848376 69.04209423 -75.13490829 44.46111047 -56.203125 24.7578125 C-43.27045416 12.34565163 -27.59515556 4.88237329 -10.203125 1.1328125 C-9.02737915 0.86803101 -9.02737915 0.86803101 -7.82788086 0.59790039 C-5.16172105 0.12547602 -2.7055756 0.00346742 0 0 Z M-15.203125 23.1328125 C-16.15832031 23.51179688 -17.11351562 23.89078125 -18.09765625 24.28125 C-35.58971059 32.05050649 -47.12002592 47.81632938 -54.203125 65.1328125 C-63.21337416 90.56673012 -61.47876103 119.84044958 -50.203125 144.1328125 C-41.58329804 161.15697075 -28.31521137 173.60908438 -10.37109375 180.16796875 C4.29754013 184.48227283 17.85850101 182.58960232 31.796875 177.1328125 C32.72113281 176.78347656 33.64539063 176.43414063 34.59765625 176.07421875 C51.74759947 168.60701859 62.11135467 151.65799441 69.0546875 135.140625 C73.36111864 123.88010505 74.20514687 113.04633679 74.171875 101.0703125 C74.17133118 100.33670502 74.17078735 99.60309753 74.17022705 98.84725952 C74.1325356 87.80471887 73.56078158 77.62047791 69.796875 67.1328125 C69.57725098 66.51470703 69.35762695 65.89660156 69.13134766 65.25976562 C66.14392135 57.06495715 62.24748462 49.92648814 56.796875 43.1328125 C55.77787109 41.85083984 55.77787109 41.85083984 54.73828125 40.54296875 C45.4593293 29.54385459 32.27877614 21.58693782 17.796875 20.1328125 C0.95751667 19.17799676 0.95751667 19.17799676 -15.203125 23.1328125 Z " fill="#024BAD" transform="translate(630.203125,1128.8671875)"/>
<path d="M0 0 C1.1132666 0.02102783 1.1132666 0.02102783 2.24902344 0.04248047 C13.15017773 0.29752436 23.7205943 2.16073154 34.43359375 4.0625 C45.34677534 5.93078674 56.0089858 6.19691693 67.0625 6.1875 C67.93625275 6.1882251 68.81000549 6.1889502 69.7102356 6.18969727 C83.63591665 6.18843815 97.48431611 5.66795118 111.38381958 4.85733032 C130.92110912 3.73100722 150.43735534 3.80156493 170 4 C166.89768348 5.65637536 164.08747027 6.44746408 160.62182617 7.08862305 C143.39395907 10.33316938 127.00892892 17.25655043 111.0625 24.375 C85.83588782 35.50054488 58.7057325 42.74321141 32.35449219 50.66064453 C22.82673106 53.53204785 13.34372682 56.48448398 3.9453125 59.7578125 C3.13735229 60.03828934 2.32939209 60.31876617 1.49694824 60.60774231 C-7.92723162 63.94396247 -16.45178337 68.39638167 -24.74609375 73.99609375 C-27.60554557 75.26971441 -29.0621922 74.95454025 -32 74 C-33.6875 72.5 -33.6875 72.5 -35 71 C-37.49754439 69.7512278 -39.661951 69.64816457 -42.4375 69.3125 C-56.64315681 66.96180203 -72.66569739 55.11972567 -81.11083984 43.46728516 C-82.80427672 41.05422279 -84.4818801 38.63033156 -86.15991211 36.20654297 C-91.24443876 29.00805073 -97.51294338 23.60741946 -105 19 C-90.82008446 2.75318151 -55.05396368 1.97303566 -35.41699219 0.56445312 C-23.60581847 -0.18556802 -11.82863677 -0.27463197 0 0 Z " fill="#FDFDFE" transform="translate(961,602)"/>
<path d="M0 0 C0 24.75 0 49.5 0 75 C12.59039152 71.22288254 16.09869158 69.18136325 22.26968384 58.35089111 C24.94325563 53.17331249 26.79734658 47.82277854 28.63671875 42.3046875 C29.46843133 39.93670085 30.30248323 37.56953476 31.13867188 35.203125 C32.42758897 31.5212098 33.70034957 27.83646388 34.93432617 24.13574219 C36.14447901 20.52880716 37.41583783 16.94860944 38.69921875 13.3671875 C39.05279953 12.25584442 39.40638031 11.14450134 39.77067566 9.9994812 C40.91508525 6.8957711 41.88705464 4.54940367 44 2 C47.99514567 0.40970427 51.72768704 0.08530043 56 0 C56.74853745 -0.03990051 57.49707489 -0.07980103 58.26829529 -0.12091064 C60.09422374 -0.19000879 61.92312993 -0.1615374 63.75 -0.125 C65.53664063 -0.09792969 65.53664063 -0.09792969 67.359375 -0.0703125 C68.23078125 -0.04710937 69.1021875 -0.02390625 70 0 C69.3749423 3.58708001 68.41430632 6.78541811 67.06982422 10.16650391 C66.6720578 11.17170074 66.27429138 12.17689758 65.86447144 13.21255493 C65.43224274 14.28967743 65.00001404 15.36679993 64.5546875 16.4765625 C64.10658722 17.59759369 63.65848694 18.71862488 63.19680786 19.87362671 C62.24591192 22.24663043 61.29255121 24.61864774 60.33691406 26.98974609 C58.89049947 30.58645839 57.46061347 34.18945262 56.03125 37.79296875 C55.10257825 40.104575 54.17292133 42.41578575 53.2421875 44.7265625 C52.82210419 45.79153961 52.40202087 46.85651672 51.96920776 47.95376587 C48.21366697 57.18409092 43.63409919 66.37038755 36 73 C35.175 73.721875 34.35 74.44375 33.5 75.1875 C29.36069998 78.18849251 26.11286605 79.29216377 21 79 C21 79.66 21 80.32 21 81 C22.010625 81.0825 23.02125 81.165 24.0625 81.25 C30.83415804 82.23496844 35.49249962 86.00520228 40 91 C40.99 92.051875 40.99 92.051875 42 93.125 C48.64105346 102.67151435 51.23719711 113.62819726 53.3125 124.875 C55.54213922 136.70648608 57.91735277 148.49825248 60.43115234 160.27246094 C60.96795769 162.84636193 61.46832168 165.4244122 61.95703125 168.0078125 C63.91540079 178.03795276 67.0960026 186.02864517 72 195 C72.33 195.99 72.66 196.98 73 198 C62.44 198 51.88 198 41 198 C40.91234375 195.61007812 40.8246875 193.22015625 40.734375 190.7578125 C40.21437975 180.60052226 38.29663213 170.81725062 36.25 160.875 C35.8830201 159.05847197 35.5166517 157.2418203 35.15087891 155.42504883 C34.43424624 151.87740075 33.70998357 148.33144016 32.97949219 144.78662109 C32.1480448 140.74435882 31.3526391 136.69656703 30.5703125 132.64453125 C27.18302665 114.31791377 27.18302665 114.31791377 15.85546875 100.109375 C10.71498116 97.03590452 5.91421462 95.98570244 0 95 C0 128.99 0 162.98 0 198 C-9 198 -9 198 -25 196 C-25 131.98 -25 67.96 -25 2 C-10 0 -10 0 0 0 Z " fill="#014BAD" transform="translate(777,1131)"/>
<path d="M0 0 C1.02101807 0.01611328 2.04203613 0.03222656 3.09399414 0.04882812 C24.59719916 0.60127202 40.56083277 6.67917595 57.1875 20.4375 C57.98671875 21.08460938 58.7859375 21.73171875 59.609375 22.3984375 C72.84427378 33.57964509 81.89295806 48.75831957 91.0625 63.25 C100.10161713 77.53088567 109.46048117 91.36451766 120.1875 104.4375 C120.68427246 105.04400391 121.18104492 105.65050781 121.69287109 106.27539062 C129.56602966 115.82618952 136.98640029 124.77589826 148.4453125 130.0234375 C152.90281826 132.32203734 156.86616932 135.31230126 160.9140625 138.25390625 C163.33794812 139.87079415 165.52236058 141.14895305 168.1171875 142.40234375 C172.2436865 144.40067098 175.93881529 146.80818112 179.6875 149.4375 C180.37183105 149.91316406 181.05616211 150.38882813 181.76123047 150.87890625 C189.37798965 156.21081169 196.80784962 161.78376582 204.1875 167.4375 C204.80399414 167.90687988 205.42048828 168.37625977 206.05566406 168.85986328 C226.52321706 184.47580764 249.21699373 204.61446238 253.6875 231.4375 C252.93770975 235.93624149 251.06236408 239.88828509 248.1875 243.4375 C244.38499017 245.52528079 240.98093495 245.73495291 236.6875 245.75 C235.5840625 245.76675781 234.480625 245.78351563 233.34375 245.80078125 C229.03888576 245.30529564 226.44429338 243.92960533 223.65014648 240.61230469 C222.15322741 238.38654018 221.33032596 236.45438797 220.50390625 233.91015625 C220.21845947 233.04221436 219.9330127 232.17427246 219.63891602 231.2800293 C219.34557373 230.36261963 219.05223145 229.44520996 218.75 228.5 C218.43925537 227.55358643 218.12851074 226.60717285 217.80834961 225.63208008 C216.18346258 220.65541195 214.67154455 215.66386774 213.25 210.625 C203.3057981 178.19095752 177.32525741 158.85514105 148.62890625 143.5234375 C133.61362344 135.36484453 120.71183734 124.11829527 107.890625 112.91845703 C105.52190826 110.85873287 103.13156292 108.82478764 100.74243164 106.78881836 C96.10499324 102.83510887 91.50782621 98.85190821 87 94.75 C82.83461899 90.9706787 78.52675254 87.40888424 74.15234375 83.875 C71.47389518 81.67295533 68.85377821 79.42149023 66.2421875 77.14160156 C46.34505768 59.82083776 22.60496463 41.40484098 -3.77734375 35.80859375 C-10.37730735 34.38091312 -15.45486446 32.85281407 -19.8125 27.4375 C-21.86800007 21.27099979 -21.89788284 13.90933936 -19.1875 7.9375 C-15.12996925 0.03051699 -7.86625631 -0.18099694 0 0 Z " fill="#024BAD" transform="translate(1269.8125,825.5625)"/>
<path d="M0 0 C1.02931641 -0.00773437 2.05863281 -0.01546875 3.11914062 -0.0234375 C11.4341207 -0.00240023 19.26281101 1.01607896 27.125 3.8125 C27.83527344 4.06128906 28.54554688 4.31007813 29.27734375 4.56640625 C29.90769531 4.79199219 30.53804687 5.01757812 31.1875 5.25 C32.1775 5.58 33.1675 5.91 34.1875 6.25 C34.1875 17.8 34.1875 29.35 34.1875 41.25 C32.1875 40.25 32.1875 40.25 30.5 36.625 C26.6012256 28.68567758 20.51188588 24.07638999 12.57421875 20.3515625 C4.45285115 17.71001041 -5.01210444 18.04605576 -12.953125 21.28515625 C-18.68899568 24.26154292 -21.78228007 27.89211247 -24.12109375 33.79296875 C-26.16999785 41.07410253 -25.21410257 48.53904171 -21.8125 55.25 C-14.46691118 66.55373819 -3.53314286 75.03886487 7.02563477 83.18188477 C14.55859804 89.02200022 21.48595474 95.47399312 28.1875 102.25 C28.90550781 102.97058594 29.62351562 103.69117188 30.36328125 104.43359375 C43.59783224 118.39398849 49.85730867 133.94733652 49.73095703 153.14306641 C49.35274219 164.51498711 45.8310318 173.6983258 38.1875 182.25 C37.68734375 182.85328125 37.1871875 183.4565625 36.671875 184.078125 C28.8802121 192.77755445 16.61586447 197.58221261 5.09863281 198.39794922 C-11.3889653 199.11807247 -26.93514783 196.68867608 -41.8125 189.25 C-41.8125 177.04 -41.8125 164.83 -41.8125 152.25 C-39.8325 154.725 -39.8325 154.725 -37.8125 157.25 C-30.28576456 166.52055336 -21.03398537 175.19456837 -8.8125 177.25 C1.01316052 178.01159596 10.328966 177.99224712 18.5625 172.0625 C24.58994749 165.60452055 24.85980027 158.60703616 24.65625 150.06640625 C23.33009766 139.26931594 16.58379372 131.7249777 9.1875 124.25 C8.64609375 123.65960937 8.1046875 123.06921875 7.546875 122.4609375 C3.31592302 117.95219574 -1.51725123 114.28569728 -6.39916992 110.52124023 C-11.26481388 106.74691937 -15.81122602 102.74494038 -20.3125 98.5390625 C-22.07817057 96.92237039 -23.90769538 95.37413229 -25.77734375 93.87890625 C-29.10887047 91.12376455 -31.73552011 87.97215963 -34.375 84.5625 C-34.85461182 83.94383057 -35.33422363 83.32516113 -35.82836914 82.68774414 C-39.53297853 77.80753027 -42.56489773 72.97519161 -44.8125 67.25 C-45.20179688 66.30253906 -45.59109375 65.35507813 -45.9921875 64.37890625 C-50.2359362 52.65737966 -51.16296144 37.80213266 -45.8125 26.25 C-39.48542101 13.06858544 -29.18152294 6.05585861 -15.68359375 1.1015625 C-10.4199727 -0.0563279 -5.3724687 -0.03991927 0 0 Z " fill="#034CAE" transform="translate(485.8125,1130.75)"/>
<path d="M0 0 C0 65.67 0 131.34 0 199 C-10 199 -10 199 -26 197 C-26 132.98 -26 68.96 -26 3 C-4 0 -4 0 0 0 Z " fill="#064EAE" transform="translate(897,1130)"/>
<path d="M0 0 C12.75180001 5.49433334 25.4622643 11.06314903 38.07861328 16.86279297 C38.94470215 17.25998535 39.81079102 17.65717773 40.703125 18.06640625 C41.46270508 18.41646729 42.22228516 18.76652832 43.00488281 19.12719727 C45.13854177 20.09646402 45.13854177 20.09646402 48 21 C48.96362305 23.50634766 48.96362305 23.50634766 49.82421875 26.7890625 C51.8173508 33.72292958 54.59848319 39.93278764 57.8125 46.375 C58.88573167 48.57276287 59.95864999 50.77067878 61.03125 52.96875 C62.02040831 54.97937582 63.00994901 56.9898136 64 59 C71.72229359 74.73953589 77.82645498 90.51338417 81.48339844 107.66064453 C82.06921191 110.31341613 82.70630078 112.95091177 83.3515625 115.58984375 C83.58343262 116.54004395 83.81530273 117.49024414 84.05419922 118.46923828 C84.50928096 120.32884598 84.96654889 122.18792039 85.42626953 124.04638672 C85.73346924 125.31699951 85.73346924 125.31699951 86.046875 126.61328125 C86.23088867 127.36391846 86.41490234 128.11455566 86.60449219 128.88793945 C87 131 87 131 87 135 C81.54318553 134.51308425 78.09142782 132.54933484 73.625 129.625 C72.9338208 129.18164307 72.2426416 128.73828613 71.53051758 128.28149414 C69.34366396 126.8690018 67.17006487 125.43813514 65 124 C64.29891113 123.53674316 63.59782227 123.07348633 62.87548828 122.59619141 C54.21105015 116.83811467 45.83076578 110.87062412 38 104 C37.21109375 103.34128906 36.4221875 102.68257812 35.609375 102.00390625 C21.03225768 88.88945886 17.35539681 68.47452088 13.92724609 50.09399414 C10.8375554 33.58294238 7.71993978 17.05388257 0 2 C0 1.34 0 0.68 0 0 Z " fill="#FCFDFE" transform="translate(542,841)"/>
<path d="M0 0 C2.4375 0.125 2.4375 0.125 5 1 C7.31233244 5.25436253 7.5898623 9.82194133 8 14.5625 C8.08193604 15.44800537 8.16387207 16.33351074 8.24829102 17.24584961 C8.91613726 24.93150323 9.3119426 32.62507267 9.69726562 40.32861328 C10.88484462 63.9877579 13.42826113 83.12186158 22.8046875 105.15576172 C28.37231997 118.40390678 32.04863414 131.95278872 35 146 C35.16661133 146.78020508 35.33322266 147.56041016 35.50488281 148.36425781 C38.84894884 164.44762298 40.66046568 181.55385426 34 197 C33.4740625 198.22396484 33.4740625 198.22396484 32.9375 199.47265625 C29.42007301 206.59300325 23.60063987 213.62042951 16.3125 217.0625 C11.39132878 218.45528431 8.57773129 218.72575639 3.875 216.5625 C-0.84762112 212.35320726 -2.57627729 208.14426009 -3.41796875 201.8984375 C-3.70772228 195.08531392 -2.71813104 189.24506308 -0.6875 182.8125 C8.33390526 154.1751566 6.56081232 122.83764179 1.1809082 93.61474609 C0.112765 87.8028102 -0.7849612 81.97406273 -1.625 76.125 C-1.7480249 75.28155029 -1.8710498 74.43810059 -1.99780273 73.5690918 C-3.3732023 63.85396785 -4.15675269 54.21123512 -4.203125 44.3984375 C-4.20882507 43.43652496 -4.21452515 42.47461243 -4.22039795 41.48355103 C-4.22976411 39.46853712 -4.2363481 37.45350848 -4.24023438 35.43847656 C-4.24999879 32.37538077 -4.28112545 29.31294076 -4.3125 26.25 C-4.31902666 24.27864976 -4.32427845 22.30729479 -4.328125 20.3359375 C-4.3404718 19.4325766 -4.3528186 18.5292157 -4.36553955 17.59848022 C-4.34643243 12.092871 -4.17237085 4.17237085 0 0 Z " fill="#034CAE" transform="translate(936,766)"/>
</svg>
